<?xml version="1.0" encoding="utf-8"?>
<!-- Generator: Adobe Illustrator 11.0, SVG Export Plug-In . SVG Version: 6.0.0 Build 78)  -->
<!DOCTYPE svg PUBLIC "-//W3C//DTD SVG 1.0//EN"    "http://www.w3.org/TR/2001/REC-SVG-20010904/DTD/svg10.dtd">
<svg width="154.823" height="219.082" viewBox="0 0 154.823 219.082" overflow="visible" enable-background="new 0 0 154.823 219.082"
	 xml:space="preserve">
		<g id="Layer_1">
			<g>
				<path fill-rule="evenodd" fill="#D4C491" d="M49.889,125.602c0,9.895,2.933,20.236,1.907,27.714l-0.516,3.738c0,13.786,2.052,27.351-3.446,39.815
					c-0.808,1.76-1.979,4.695-1.979,6.747c-0.075,4.326-7.921,6.816-9.313,10.848c-0.44,1.396,0,1.615,0.438,2.13
					c2.935,0,6.086-0.222,9.094-0.222c1.979-0.73,4.474-3.742,3.813-6.45c1.247-1.248,3.958-6.306,4.766-7.993
					c2.565-6.523,1.248-17.23,2.565-24.195c1.32-5.866,2.276-11.876,2.495-17.67l1.248-5.723c0,0.442,0.953-3.81,1.904-6.521
					c0-6.894,1.321-13.271,1.394-20.749C60.081,127.508,53.848,127.508,49.889,125.602L49.889,125.602z"/>
				<path fill-rule="evenodd" fill="#D4C491" d="M91.684,118.636c0,1.319,0.438,2.2,1.245,3.08c0,3.006,3.373,4.691,3.373,6.892
					c2.933,1.685,7.188,6.451,8.433,9.459c2.128,4.766,9.681,7.329,11.806,12.096c1.247,3.007-0.438,7.772-0.438,10.779
					c-2.129,2.127-4.622,8.654-5.428,11.218c-0.88,2.2-3.742,8.579-4.18,10.778c0,0.439-5.206,8.576-6.381,11.657
					c-3.373,8.654-13.857,11.29-13.27,18.11c1.539,0.954,7.186,0,10.191,0.44c1.904,0.22,3.078-6.014,3.521-7.771
					c0-0.879,2.49-1.687,3.371-2.567c4.106-18.036,7.553-13.195,13.42-29.329c3.447-8.651,13.931-21.629,13.931-28.964
					c0.439-0.805,0.439-2.122,0-3.005c-2.055-5.571-11.365-7.331-13.931-13.342c-1.245-3.889,0.731-12.979,4.034-15.252
					C117.787,113.21,101.874,118.341,91.684,118.636L91.684,118.636z"/>
				<path fill-rule="evenodd" fill="#C2B27F" d="M96.963,117.461c0.584,2.567,1.173,4.545,2.419,7.259c0.954,2.346,5.204,5.133,6.965,6.894
					c2.861,3.005,2.422,8.576,3.74,11.949c8.653,6.378,7.407,7.331,6.083,17.376c-0.364,0.439-0.877,2.862-1.1,3.448
					c-1.54,4.104-2.493,8.723-4.252,12.684l-5.354,11.22c-0.438,1.028-1.023,3.006-1.539,3.594c-0.292,2.933-0.586,5.501,0.44,8.578
					c1.247-5.791,0.953-9.75,6.673-15.103c2.489-2.42,5.352-10.704,6.375-13.637c2.274-6.603,5.428-9.164,8.508-15.032
					c1.979-3.884,4.838-10.116,5.062-11.512c1.687-7.698-6.601-8.287-10.705-12.465c-4.987-5.133-3.521-8.065-2.494-13.342
					c0.659-3.228,2.052-4.769,3.302-6.381C113.606,114.31,104.516,116.949,96.963,117.461L96.963,117.461z M54.069,126.847
					c2.565,5.865,1.833,13.051,1.247,18.916c0.586,3.961,1.904,19.432,0.367,28.159c-1.247,6.744-0.807,14.005-3.3,20.309
					c0.88-2.198-4.034,6.966-3.079,13.125c0.805,0,4.545-4.327,4.839-5.132c2.713-8.14,1.466-15.473,2.493-23.979
					c0.953-7.919,2.713-22.143,6.011-30.063c-0.219-6.965,0.586-13.712,1.542-21.044C60.887,127.359,59.2,127.651,54.069,126.847
					L54.069,126.847z"/>
				<path fill-rule="evenodd" fill="#D4C491" d="M24.007,41.572C18.215,36.66,14.035,23.903,0.69,23.828c-1.832,2.199,0.075,10.191,4.622,14.299
					c1.61,3.445,5.79,2.126,8.725,6.084c1.613,1.833,1.613,6.161,5.131,7.115c-0.146,2.49,1.613,4.836,4.766,9.165
					c0.221,1.758-0.219,4.397,2.787,14.298c-0.734,1.685-1.612,1.318-0.44,2.859c-0.951,1.615,4.18,4.253,4.18,4.253
					c1.833,2.274,7.188,1.687,9.461-0.511c3.885-3.742,3.957-2.422,3.299-6.6c4.545-5.867,4.836-15.839,8.064-23.755
					c1.688-1.763,2.713-2.714,3.372-5.646c3.081-2.128,9.166-5.868,9.681-8.582c1.612-8.649,2.417-13.563,0.438-14.735
					c-3.008-1.834-14.374,10.264-17.306,19.869c-1.394,1.32-3.299,2.57-4.104,3.448c-1.909,0.657-4.988,1.172-6.308-0.956
					c0-0.44,0-2.859,1.981-3.664c-1.615-1.834-7.115-1.172-8.875,0c0.44,0.44,2.128,2.932,2.128,3.742
					c-1.613,1.758-6.6,1.979-8.285,0.219V41.572L24.007,41.572z"/>
				<path fill-rule="evenodd" fill="#993000" d="M47.837,41.501c3.005-9.605,14.003-21.117,17.084-19.286c1.98,1.102,1.172,6.087-0.44,14.666
					c-0.514,2.786-6.6,6.452-9.678,8.579c-0.659,3.007-1.688,3.885-3.372,5.644c-3.225,7.922-3.52,17.893-8.139,23.757
					c0.659,4.18,0.586,2.862-3.302,6.453c0-1.758-2.199-4.69-3.811-4.69c0-0.662,0.367-1.321,0.367-1.981l-0.659-0.662v-0.659
					c0-0.292,0.953-1.247,0.953-1.615c-0.953-1.906,0.292-4.547,0.292-6.524c-0.586-0.661-1.247-0.953-1.906-1.248
					c0-1.024,0-2.273,0.368-2.933v-0.661c-0.368-0.659-0.368-1.318-0.662-1.979c0,0-4.104-3.227-5.131-3.227
					c0.146-2.198-3.373-4.987-5.281-5.425c-2.49-1.615-3.885-0.37-4.839,1.977c-3.591-1.024-3.961-5.568-5.5-7.4
					c-2.933-3.888-7.113-2.565-8.728-6.086c-4.544-4.107-6.451-12.1-4.617-14.298c13.345,0.071,17.525,12.832,23.317,17.817v3.079
					c1.685,1.761,6.597,1.54,8.285-0.146c0-0.88-1.688-3.373-2.201-3.813c1.833-1.097,7.259-1.833,8.871,0
					c-1.904,0.88-1.904,3.227-1.904,3.667c1.318,2.125,4.474,1.761,6.159,1.321c1.394-0.513,4.618-1.1,5.865-2.495
					C49.228,42.381,47.762,42.452,47.837,41.501L47.837,41.501z"/>
				<path fill-rule="evenodd" fill="#D4C491" d="M30.531,81.976c-1.833-1.026-0.732-0.221-3.007-1.907c1.76,18.624-1.318,19.945,1.028,23.169
					c1.54,2.57,3.225,7.847,7.186,8.947c2.491,1.685,8.723,8.945,11.363,12.097c0.808,0,2.055,1.248,1.688,0.881
					c8.431,4.252,19.358,1.245,27.789-0.44c4.107-0.953,4.107,5.133,5.792,6.894c0,6.892,3.3,14.884,4.104,21.775
					c-0.291,2.712-0.291,6.454,0.881,8.431c3.372,6.456,9.313,14.154,12.318,21.049c0.369,1.757,5.498,12.094,5.865,12.094
					c-0.808,0,2.565,9.535,3.813,10.851c0,3.886-3.152,6.818-3.152,9.389c0.587,1.903,1.979,3.667,4.985,3.811
					c3.958,0.439,4.471-1.685,5.72-1.685c3.007-6.455-0.074-11.733-3.742-22.732c-1.246-3.008-3.371-5.645-4.618-8.653
					c-1.248-3.886-5.061-7.772-6.746-11.657c-5.5-12.902-6.305-28.011-9.313-41.866l-0.367-10.777
					c-1.541-1.761-2.493-1.685-0.881-3.007c13.491,0,27.424-6.895,40.475-6.895c0,4.328,3.374,9.095,3.374,13.418
					c2.932,3.009,3.812,9.459,5.498,13.785c2.491,6.449,3.739,13.345,4.179,20.677l-0.438,0.438c0,0.442,0.438,1.758,0.438,2.125
					c0.879,0.881,2.128,2.2,2.128,3.521c1.247,6.452,0.439,18.479-0.805,24.565c-1.32,5.57-1.762,9.894-3.813,15.103
					c-2.785,1.834-6.159,8.212-6.159,11.291c0.661,1.099,4.695,2.124,6.601,2.419c2.64-0.367,6.012-1.612,7.111-2.347
					c0.074-1.247-1.022-6.161,0-8.357c0.441-2.129,3.373-3.45,3.811-4.766v-0.879l-1.244-1.249c0-16.427-1.32-31.894,2.052-47.512
					c2.565-10.705-8.802-21.999-5.867-34.902c3.372-14.591,13.491-36.586-5.938-45.24c-4.618-1.688-7.552-9.019-12.174-11.217
					c-17.744-7.772-39.228-7.334-56.382,0.437c-9.311,4.328-18.403,12.832-27.278,18.403l0.44,0.44
					c-0.878-0.808-3.006-8.139-2.566-9.017l-1.32,2.053c0.146,1.54,0.438,1.833,0.146,3.153
					C42.704,79.627,34.565,85.713,30.531,81.976L30.531,81.976z"/>
				<path d="M38.891,40.621c0.073-0.586-0.438-1.32-0.292-1.833c0.148-0.44,0.953-0.807,1.099-1.32c0.224-0.513,0-1.393,0.148-1.833
					c0.219-0.587,0.88-0.73,1.1-1.248c0.221-0.438-0.146-1.245,0.075-1.686c0.292-0.513,1.023-0.734,1.318-1.174
					c0.221-0.513,0.221-1.394,0.442-1.833c0.219-0.661,0.878-0.586,1.172-1.099c0.294-0.44,0-1.245,0.294-1.686
					c0.219-0.44,1.1-0.659,1.392-1.101c0.223-0.438-0.292-1.319,0-1.761c0.292-0.513,1.395-0.586,1.614-1.099
					c0.292-0.44-0.148-1.612,0.073-2.052c0.295-0.44,1.248-0.292,1.54-0.81c0.221-0.511-0.292-1.172-0.073-1.685
					c0.219-0.438,1.247-0.732,1.466-1.248c0.295-0.657,0.514-1.391,0.662-2.123c0.071-0.735-0.367-1.396-0.294-2.201
					c0.073-0.734,0.586-1.686,0.513-2.495c0-0.805-0.662-0.661-0.292-2.347c0.292-1.685-0.735-5.352-2.566-7.844
					c7.186,0.953,7.113,13.857,3.006,22.947c-4.693,10.266-4.032,19.431-6.159,20.822C42.996,47.147,32.731,47.147,38.891,40.621
					L38.891,40.621z M32.364,44.506c-0.586-1.245-0.88-2.273-1.979-3.445c-0.294-0.88,0.146-1.907-0.075-2.714
					c-0.292-0.732-1.248-1.318-1.54-2.055c-0.294-0.659,0.149-1.392-0.219-2.052c-0.294-0.661-1.466-1.248-1.833-1.834
					c-0.292-0.586,0-1.318-0.292-1.833c-0.44-0.514-1.542-0.954-1.979-1.467c-0.367-0.513-0.294-1.245-0.661-1.758
					c-0.44-0.513-1.396-0.661-1.833-1.099c-0.367-0.513-0.292-1.099-0.662-1.542c-0.438-0.44-1.466-0.734-1.904-1.172
					c-0.44-0.511-0.292-1.391-0.732-1.834c-0.44-0.513-1.467-0.513-1.909-1.024c-0.365-0.442-0.294-1.468-0.657-2.057
					c-0.443-0.511-1.467-0.511-1.836-1.099c-0.44-0.587-0.367-1.833-0.805-2.419c-0.367-0.586-1.248-0.662-1.613-1.321
					c-0.294-0.513-0.075-1.172-0.369-1.688c-0.219-0.513-1.024-0.878-1.248-1.464c-0.219-0.513,0.075-0.88-0.146-1.469
					C9.925,8.649,9.269,7.845,9.195,7.259C8.753,4.472,9.339,2.347,10.808,0c-5.06,3.443-5.06,8.209-2.936,13.417
					c4.034,9.678,14.007,17.965,16.132,28.521l0.148,2.641C26.572,47.366,30.825,45.605,32.364,44.506L32.364,44.506z"/>
				
					<linearGradient id="XMLID_2_" gradientUnits="userSpaceOnUse" x1="-184.1436" y1="-530.6001" x2="-184.1436" y2="-503.2627" gradientTransform="matrix(0.9339 0 0 -0.9339 205.1313 -447.1995)">
					<stop  offset="0" style="stop-color:#000000"/>
					<stop  offset="1" style="stop-color:#7F7F7F"/>
				</linearGradient>
				<path fill-rule="evenodd" fill="url(#XMLID_2_)" d="M51.209,45.238c0.438-2.127,4.032-5.571,4.691-7.771c0.805-2.641-0.44-9.384,5.573-13.342
					c0.878-0.514,1.248-1.394,2.933-1.25c2.128,3.887,0.073,9.607-0.586,14.3c-2.933,3.74-8.211,4.766-11.29,8.214L51.209,45.238
					L51.209,45.238z M20.485,48.39c-5.352-5.938-6.159-7.477-5.5-14.225c-3.37-3.519-8.431-9.97-13.489-9.97
					c0,0.438-0.44,1.318-0.44,2.199c-0.292,1.539-0.075,7.625,4.915,11.071c7.625,4.104,8.725,5.427,12.832,10.923
					C19.166,48.39,19.605,47.952,20.485,48.39L20.485,48.39z"/>
				<path d="M46.222,59.245c-1.831,0-3.446-1.248-2.198-2.495l3.299-3.592c1.318-1.393,2.273,0.587,2.273,2.566
					C49.595,57.63,48.056,59.245,46.222,59.245L46.222,59.245z M25.033,59.245c1.832,0,3.519-1.248,2.271-2.495l-3.373-3.592
					c-1.318-1.393-2.271,0.587-2.271,2.566C21.66,57.63,23.199,59.245,25.033,59.245L25.033,59.245z"/>
				<path fill-rule="evenodd" fill="#150500" d="M33.169,75.376c0.516,2.565,0,4.399-4.766,5.352c3.448,1.318,2.346,2.639,6.894,2.49
					c2.347-0.219,3.958-1.394,4.766-1.979c-0.292-1.172-1.542-4.031-2.639-3.888c0-0.878,3.225-1.172,3.886-2.273
					c0.438-1.245,0.072-2.419-0.734-3.225c-0.513,2.125-2.123,0.951-4.25,3.003l-1.688-0.657
					C34.198,74.204,33.536,75.376,33.169,75.376L33.169,75.376z"/>
				<path d="M30.531,81.9c3.081,0.732,6.524,0.44,9.457-0.586c-0.951,0.808-2.933,1.907-4.766,1.907
					C33.83,83.441,31.336,83,30.531,81.9L30.531,81.9z M32.731,76.181c0.146-0.51,0-1.833-0.515-1.758
					c-1.172,0.146-1.904-0.878-1.761-1.466c-0.365-0.073-0.657,1.318-0.292,1.979c0.586,0.808,0.956,0.367,1.688,0.367
					C32.146,75.301,32.658,75.52,32.731,76.181L32.731,76.181z M38.229,76.181c-0.219-0.51-0.071-1.833,0.44-1.758
					c1.172,0.146,1.979-0.878,1.761-1.466c0.367-0.073,0.659,1.318,0.292,1.979c-0.586,0.808-0.953,0.367-1.685,0.367
					C38.745,75.301,38.229,75.52,38.229,76.181L38.229,76.181z M43.582,58.731c0.073,4.032-0.953,6.894-3.519,10.556
					c0,0.44,0.292,1.466,0.292,1.758c0.661-0.292,0.661-2.272,1.833-4.766c1.466-3.225,1.906-2.42,2.201-6.527L43.582,58.731
					L43.582,58.731z M47.47,59.026c0.367,0.365,0.292,1.024-0.367,0.951c-0.073,0.221,0.367,1.029-0.073,1.248
					c-1.396,0-3.081-2.127-3.74-3.3c-0.294-0.586,0.073-1.831,0.808-1.979c0.88-0.146,0.805-1.024,0.219-1.907
					c0.661-1.318,2.932-3.151,4.768-3.225c1.024-0.146,0.953,1.393,0.953,1.612c0.365,0.587,1.099,1.836,3.811,2.422
					c-0.953,0.953-3.811-0.81-5.352-1.981c-0.807-0.66-2.419,1.541-4.034,3.299c-1.394,1.466-1.1,1.833-0.219,2.641
					C44.977,59.245,46.152,59.463,47.47,59.026L47.47,59.026z M23.713,58.951c-0.295,0.44-0.219,1.026,0.367,0.955
					c0.146,0.219-0.292,1.1,0.073,1.318c1.393,0,3.151-2.127,3.813-3.371c0.292-0.516-0.148-1.758-0.809-1.906
					c-0.881-0.221-0.881-1.024-0.292-1.907c-0.659-1.318-2.933-3.151-4.693-3.297c-1.024-0.075-0.954,1.467-0.954,1.686
					c-0.364,0.586-1.099,1.835-3.885,2.421c1.026,0.878,3.885-0.81,5.425-2.052c0.81-0.586,2.421,1.612,3.961,3.37
					c1.393,1.467,1.099,1.834,0.219,2.641C26.208,59.245,25.033,59.463,23.713,58.951L23.713,58.951z M27.744,58.51
					c-0.146,4.107,0.883,6.965,3.448,10.634c0,0.438-0.219,1.391-0.219,1.758c-0.735-0.292-0.735-2.276-1.907-4.839
					c-1.394-3.151-1.833-2.346-2.127-6.451L27.744,58.51L27.744,58.51z"/>
				<path d="M95.054,205.227c1.688-1.172,2.714-3.373,4.105-5.132c-0.951,1.905-2.712,3.74-2.86,5.573
					C95.862,205.521,95.495,205.375,95.054,205.227L95.054,205.227z M140,207.794c0.075,1.175,2.714,0.073,3.227,0.365
					c0.077-1.173,1.907-2.491,2.645-2.417c-0.735,1.757-2.274,3.007-1.321,3.956c1.686-0.22,1.392-1.316,1.906-1.979
					c1.172,1.688,1.904,1.396,3.151,1.322c-0.66,2.196,0.221,6.01,0.221,7.843c-5.791,3.081-10.263,2.347-13.784-0.22
					C136.702,213.22,138.244,209.698,140,207.794L140,207.794z M107.889,210.945c1.979,0.148,2.566,2.274,4.62,2.42
					c2.052,0.15,3.37-2.05,5.644-2.345c0,1.833-0.073,4.401-1.32,6.231c-3.151,1.909-3.446,1.834-5.279,1.762
					c-3.154,0.072-4.62-1.834-5.133-3.519C106.202,214.247,106.714,212.854,107.889,210.945L107.889,210.945z M94.174,202.736
					c0.224,0.805,0.224,2.344,1.028,2.639c1.392,0.877,3.52,0,5.352,0.072c-0.588,2.642-1.689,7.845-3.521,7.478
					c-2.862,1.247-6.892,2.126-11.073,0.662C85.009,210.873,90.07,205.299,94.174,202.736L94.174,202.736z M42.996,208.234
					c-2.639,1.979-4.912,3.153-6.894,5.425c-1.245,1.615-1.61,3.813-0.146,3.888c3.151-0.072,6.524,0,9.751-0.072
					c2.493-1.833,4.766-5.279,4.18-7.331c-1.321,0.438-3.667,0.218-4.985,0.66c0.807-1.395,0.146-1.539,0.955-2.861
					c-1.32,1.172-1.689,1.026-2.935,2.347C43.29,209.044,42.628,209.406,42.996,208.234L42.996,208.234z M36.25,217.767
					c0.732-3.3,1.979-4.543,3.519-6.233c-1.248,1.907-2.787,4.547-2.053,6.233C37.13,217.914,36.838,217.767,36.25,217.767
					L36.25,217.767z"/>
				<path fill-rule="evenodd" fill="#993000" d="M43.436,74.861c0,0.44,0.438,3.156,0,3.521l-3.448,3.079c-1.686,1.464-5.204,2.201-6.376,1.833
					c0.805,0.878,3.665,7.186,4.547,8.066c0,2.568,1.318-1.833,1.76,13.563c1.686,0.881,3.371,2.641,4.18,4.401
					c5.131,11.949,21.554,0.368,29.547,3.302c8.579,2.933,3.3,9.017,10.41,16.349c0,8.212,5.5,16.863,5.5,25.075
					c0.292,1.689-1.247,5.425,0.367,7.26c0.732,0.73,4.251,2.858,5.353,0.587l-3.373,6.378c6.16,7.258,11.218,14.518,14.885,21.114
					c2.784,5.06,6.014,14.52,3.813,16.718c0,0,1.686,0.659,5.428-2.052c-1.394-7.919-6.673-16.13-9.389-21.483
					c-1.537-3.154-2.784-4.546-4.326-6.38c-4.326-11.289-4.399-14.444-5.792-18.77c-1.467-9.825-4.912-26.397-4.399-35.122
					c-1.099-4.255-5.498-2.345-5.06-6.673c0.439-3.886,3.739-11.949,7.109-13.271c8.872-3.886,24.05-3.886,28.306-15.545
					c1.688-5.352,2.418-2.053,3.372,0.88c1.612,4.328,8.798,6.894,10.486,11.22c1.686,3.886,1.686,9.97,3.369,13.711
					c1.247,3.004,5.793,8.723,7.92,10.924c1.175-12.027,9.165-25.588,5.06-38.863c-2.057-6.597-7.919-9.311-11.805-11.363
					c-3.959-2.053-3.151-3.373-8.87-9.532c-33.218-15.107-60.053-0.734-68.923,6.306c-2.127,9.311,13.564,20.751,6.745,21.483
					c-7.553-8.503-20.825-3.008-19.358-2.639c-3.005-3.081-5.425-12.316-5.938-15.908C43.729,74.272,43.805,74.272,43.436,74.861
					L43.436,74.861z"/>
				<path fill-rule="evenodd" fill="#993000" d="M32.95,83.15c0,8.651-2.495,18.254-1.099,25.88c-1.613-1.539-2.345-5.207-3.594-6.524l2.347-20.53
					C31.778,82.781,32.292,83,32.95,83.15L32.95,83.15z"/>
				<path fill-rule="evenodd" fill="#8D2A00" d="M154.518,148.038c-0.88-5.502-5.279,3.59-5.716,9.752c2.124,8.136,0.513,32.847-2.277,49.929
					c0.659,1.396,2.125,1.688,3.006,1.322c0.294-0.734,0.294-1.027,0.81-1.832c0.364-0.879,0.951-1.103,1.243-1.467
					c3.299-2.493,1.614-3.373,0.809-4.178c-0.733-7.848-0.438-15.402-0.438-23.611C151.44,162.48,155.18,154.047,154.518,148.038
					L154.518,148.038z M87.798,112.185c3.737-13.127,10.632-10.632,22.877-15.033c7.771-2.787,10.264-6.6,12.902-13.053
					c1.104-1.024,1.688,1.466,2.35,3.448c1.317-1.321,2.711-6.967,1.538-8.871c-7.403-10.267-18.843,1.393-22.655,6.084
					c-7.698,2.787-24.564,8.285-21.999,21.556C83.325,108.59,86.109,111.739,87.798,112.185L87.798,112.185z"/>
				<path fill-rule="evenodd" fill="#D4C491" d="M49.522,123.769l0.515,2.639c4.474,1.247,9.603,3.301,14.006,1.025l0.732-1.464L49.522,123.769
					L49.522,123.769z"/>
				<path fill-rule="evenodd" fill="#8D2A00" d="M45.048,77.501c1.614,4.18,3.153,7.845,5.06,11.436c4.693,0.88,2.125,1.833-2.199,1.321
					c-0.88-3.374-2.201-5.425-3.153-8.8C45.271,79.848,44.537,79.187,45.048,77.501L45.048,77.501z"/>
				<path fill-rule="evenodd" fill="#D4C491" d="M32.804,47.218c4.766,1.542,5.063,13.348,9.094,6.305c1.612-2.933,3.225-3.076,6.232-3.519
					c-0.367-0.513-4.838-2.787-4.766-2.05c-2.422,2.344-5.352,1.172-7.04-2.422C35.372,47.218,31.56,43.918,32.804,47.218
					L32.804,47.218z M65.067,30.502c-0.88,2.053-3.594,1.98-3.74,2.198c1.1,0.514,2.052,0.292,3.446-0.221
					C64.847,31.82,65.067,31.016,65.067,30.502L65.067,30.502z M65.141,24.489c-0.881,2.419-0.735,3.446-3.594,5.279
					c0.146,0.586,3.227-1.979,3.888-3.151C65.435,26.322,65.213,25.002,65.141,24.489L65.141,24.489z M61.473,24.268
					c-2.273,1.394-2.713,3.888-3.301,5.868c0.367,0,1.909-4.691,5.208-7.261C62.721,23.169,61.986,23.682,61.473,24.268
					L61.473,24.268z M1.497,31.308c0.951,1.248,2.714,2.271,4.326,2.127c-1.318-0.44-4.105-1.981-4.105-4.107
					c0.514,0.732,2.201,2.055,2.933,1.688c-2.052-0.956-2.787-2.201-2.787-4.766c-0.07-0.513,0.149-0.805,0.516-0.586
					c1.099,0.586,2.933,2.127,4.032,2.933c0.586,0.438,1.614,1.466,2.2,1.979c0.295-0.365-4.62-5.79-7.11-6.303
					C0.471,27.349,1.203,29.62,1.497,31.308L1.497,31.308z M50.842,9.163c1.1-0.367,2.347-0.073,3.227,0.148
					c-0.586-0.586-2.127-1.172-3.151-1.245C50.769,8.357,50.842,8.946,50.842,9.163L50.842,9.163z M50.694,12.757
					c1.32-0.368,2.344-0.146,3.227,0.44c-0.44-1.102-1.761-1.759-2.787-1.982C50.918,11.657,50.842,12.171,50.694,12.757
					L50.694,12.757z M50.769,15.91c1.027-0.221,1.98,0,2.639,0.438c-0.513-0.808-1.393-1.245-2.419-1.54
					C50.918,15.251,50.918,15.618,50.769,15.91L50.769,15.91z M48.863,18.476c1.54-0.148,2.86,0.586,3.74,1.248
					c-0.221-1.027-1.467-1.982-2.495-2.276C49.668,17.817,49.082,18.111,48.863,18.476L48.863,18.476z M47.395,21.335
					c1.468,0.148,3.081,1.172,3.814,1.833c-0.148-0.954-1.466-2.419-2.492-2.713C48.202,20.53,47.103,20.75,47.395,21.335
					L47.395,21.335z M45.782,23.974c1.833,0.221,3.519,1.102,4.253,2.055c-0.221-1.026-1.615-2.419-2.787-2.859
					C46.738,23.388,46.003,23.682,45.782,23.974L45.782,23.974z M44.316,26.908c1.612,0.146,3.593,1.1,4.692,2.199
					c-0.438-1.245-2.128-2.639-3.519-3.005C45.048,26.396,44.683,26.543,44.316,26.908L44.316,26.908z M42.922,29.693
					c1.907,0.073,4.034,1.321,5.427,2.127c-0.807-1.172-2.859-2.565-4.398-3.005C43.657,29.034,43.068,29.328,42.922,29.693
					L42.922,29.693z M41.162,32.849c2.273,0.073,4.766,1.612,6.378,2.713c-1.026-1.614-3.446-3.594-5.206-3.815
					C41.824,32.04,41.162,32.555,41.162,32.849L41.162,32.849z M39.919,35.78c2.417-0.368,5.571,1.247,7.111,2.273
					c-0.808-1.539-3.961-3.373-6.087-3.373C40.505,35.047,39.988,35.415,39.919,35.78L39.919,35.78z M38.596,39.006
					c2.639-0.294,5.866,1.024,7.845,1.979c-0.953-1.613-4.766-3.3-6.818-3.151C39.183,38.201,38.596,38.641,38.596,39.006
					L38.596,39.006z M30.239,38.42c-2.052-0.219-4.766,0.732-6.524,2.052c1.321-1.906,3.445-3.445,5.277-3.737
					C29.507,37.248,30.093,37.834,30.239,38.42L30.239,38.42z M28.551,34.315c-1.981,0.146-4.546,1.024-6.161,2.491
					c0.734-1.686,2.935-3.151,4.474-4.103C27.45,33.289,28.111,33.729,28.551,34.315L28.551,34.315z M26.351,30.648
					c-1.833,0.586-4.252,1.466-5.57,2.86c0.513-1.391,2.492-3.077,3.813-4.18C25.179,29.841,26.278,30.43,26.351,30.648
					L26.351,30.648z M23.786,27.421c-1.688,0.662-3.813,1.394-5.06,2.933c0.513-1.54,2.052-3.006,3.3-3.959
					C22.684,26.688,23.345,27.057,23.786,27.421L23.786,27.421z M21.217,24.635c-1.831,0.516-3.37,1.833-4.325,3.154
					c0.292-1.761,1.318-3.081,2.565-4.107C20.121,23.974,20.631,24.341,21.217,24.635L21.217,24.635z M18.655,21.775
					c-1.688,0.37-3.446,1.25-4.107,2.493c0.075-1.539,1.542-2.493,2.42-3.373C17.553,21.189,18.361,21.483,18.655,21.775
					L18.655,21.775z M16.014,18.697c-1.467,0.292-2.859,1.321-3.886,2.345c0.292-1.243,1.54-2.566,2.271-3.225
					C14.985,18.184,15.865,18.403,16.014,18.697L16.014,18.697z M13.374,15.032c-1.612,0.292-2.565,1.467-3.446,2.271
					c0.146-1.32,1.173-2.346,2.128-3.224C12.566,14.441,13.082,14.738,13.374,15.032L13.374,15.032z M11.394,12.025
					c-1.318,0-2.491,0.951-3.371,1.758c0.292-1.026,1.393-1.981,2.347-2.787C10.735,11.363,11.029,11.733,11.394,12.025
					L11.394,12.025z M10.073,9.237c-1.32,0.073-2.344,0.587-3.153,1.321c0.515-0.88,1.396-1.835,2.495-2.643
					C9.708,8.357,10.073,8.871,10.073,9.237L10.073,9.237z"/>
			</g>
		</g>
	</svg>
